PathFileType	4	(X/Y/Z)	E:\Qualisys_Data\Carbon_Farble_Plate\Data\Amateur_Runner\S2\T1\S2T1V11_c3d.trc
DataRate	CameraRate	NumFrames	NumMarkers	Units	OrigDataRate	OrigDataStartFrame	OrigNumFrames
200.000000	200.000000	4	39	mm	200.000000	82	328
Frame#	Time	LSHO			RSHO			LICST			RICST			LASIS			LHEEL			RASIS			LTROC			RTROC			SACR			LTH1			LSK4			LTH2			LTH3			RHM5			LSK2			LTH4			RTH1			LTOE			RTH2			RTH3			RTH4			LLEP			RLEP			LSK1			LSK3			RSK1			LHM5			RSK2			LFT1			RSK3			RSK4			LLME			RLME			RTOE			RHEEL			RFT1			RFT2			LFT2			
		X1	Y1	Z1	X2	Y2	Z2	X3	Y3	Z3	X4	Y4	Z4	X5	Y5	Z5	X6	Y6	Z6	X7	Y7	Z7	X8	Y8	Z8	X9	Y9	Z9	X10	Y10	Z10	X11	Y11	Z11	X12	Y12	Z12	X13	Y13	Z13	X14	Y14	Z14	X15	Y15	Z15	X16	Y16	Z16	X17	Y17	Z17	X18	Y18	Z18	X19	Y19	Z19	X20	Y20	Z20	X21	Y21	Z21	X22	Y22	Z22	X23	Y23	Z23	X24	Y24	Z24	X25	Y25	Z25	X26	Y26	Z26	X27	Y27	Z27	X28	Y28	Z28	X29	Y29	Z29	X30	Y30	Z30	X31	Y31	Z31	X32	Y32	Z32	X33	Y33	Z33	X34	Y34	Z34	X35	Y35	Z35	X36	Y36	Z36	X37	Y37	Z37	X38	Y38	Z38	X39	Y39	Z39	

83	0.41	-1666.564453125	1511.119262695312	-459.6720275878906	-1566.7529296875	1492.23388671875	-166.0228729248047	-1648.317993164062	1046.12548828125	-445.5739135742188	-1600.596435546875	1037.791015625	-149.8557586669922	-1588.884155273438	997.7415161132812	-431.7383117675781	-1518.056884765625	109.2569274902344	-325.8144226074219	-1551.628173828125	985.0612182617188	-177.9964447021484	-1712.9736328125	923.0054321289062	-443.4596862792969	-1712.859497070312	963.203857421875	-130.3333892822266	-1720.335205078125	1084.935302734375	-280.9918518066406	-1527.102416992188	700.7828979492188	-465.5445251464844	-1550.47900390625	313.7591857910156	-420.8448181152344	-1607.89111328125	678.8954467773438	-453.9388732910156	-1498.54736328125	605.4627685546875	-438.1365661621094	-2178.644775390625	200.7801208496094	-130.4641876220703	-1561.6064453125	410.8767395019531	-435.9477844238281	-1579.795288085938	585.71484375	-427.0942687988281	-1686.629638671875	677.5655517578125	-134.6750640869141	-1296.380859375	191.5510711669922	-385.8079833984375	-1758.749877929688	711.01416015625	-126.5479278564453	-1732.390991210938	586.3311157226562	-145.4685516357422	-1804.47265625	624.7010498046875	-141.8250732421875	-1530.141357421875	549.30078125	-428.3243408203125	-1802.53515625	581.2391967773438	-137.1500396728516	-1483.802734375	420.6843872070312	-434.3569030761719	-1471.733764648438	321.5453796386719	-422.7744750976562	-1879.922607421875	483.1583557128906	-125.9163665771484	-1344.872680664062	147.2028961181641	-439.1148681640625	-1926.48193359375	547.5	-124.2907791137695	-1495.073608398438	92.34228515625	-302.4712829589844	-1961.920288085938	422.6817626953125	-128.2646789550781	-2006.272705078125	487.6945190429688	-132.0176544189453	-1476.093505859375	139.5537261962891	-390.8328247070312	-2138.377197265625	343.0037231445312	-152.0465240478516	-2142.22998046875	146.9398040771484	-185.7403411865234	-2153.419677734375	393.1748657226562	-211.9790649414062	-2170.93603515625	373.931640625	-246.5169982910156	-2182.280029296875	389.3397827148438	-192.4468383789062	-1509.2490234375	80.15808868408203	-350.5751037597656
84	0.415	-1650.43212890625	1508.941162109375	-461.1581115722656	-1551.290771484375	1490.208862304688	-167.2658843994141	-1632.306030273438	1043.73779296875	-445.7496948242188	-1584.5732421875	1035.899780273438	-150.0481262207031	-1572.915893554688	995.8386840820312	-432.5116271972656	-1499.000610351562	107.2029876708984	-325.1659240722656	-1534.941162109375	983.1447143554688	-177.5697479248047	-1696.845336914062	920.42919921875	-443.4762573242188	-1693.575317382812	960.6024169921876	-129.6917266845703	-1704.003662109375	1082.754028320312	-280.8934326171875	-1510.351440429688	697.41259765625	-467.0487976074219	-1532.019165039062	312.0470581054688	-420.5567016601562	-1592.294677734375	675.9791870117188	-454.9459838867188	-1482.18310546875	602.3522338867188	-438.4182739257812	-2167.57373046875	207.0623016357422	-129.6847381591797	-1543.014282226562	408.5995483398438	-435.6886596679688	-1563.813354492188	582.5571899414062	-427.0944519042969	-1668.805297851562	674.7553100585938	-135.0323181152344	-1277.614501953125	192.1570739746094	-384.8975830078125	-1740.11083984375	707.66748046875	-126.2026672363281	-1714.721435546875	583.0940551757812	-146.1619567871094	-1785.282348632812	621.03125	-141.4489440917969	-1513.224487304688	547.216552734375	-427.9239807128906	-1783.20654296875	578.1489868164062	-136.9984283447266	-1465.97314453125	419.3145141601562	-433.4635009765625	-1452.971923828125	320.5872497558594	-421.1724243164062	-1860.975708007812	480.8539123535156	-125.1875152587891	-1325.6181640625	146.9353637695312	-437.9049377441406	-1907.154174804688	546.6356811523438	-124.1110610961914	-1472.58154296875	91.19124603271484	-300.5917663574219	-1945.008544921875	422.7366638183594	-128.0627593994141	-1987.828735351562	489.2055358886719	-131.953857421875	-1457.056762695312	137.6574554443359	-389.5584716796875	-2123.1220703125	348.6346435546875	-151.6790466308594	-2132.781494140625	151.8617248535156	-184.6710052490234	-2137.91455078125	398.3905334472656	-211.3436431884766	-2157.0830078125	379.9969177246094	-246.9082946777344	-2167.5107421875	395.3518981933594	-192.2625732421875	-1488.7939453125	77.97232818603516	-348.9254455566406
85	0.42	-1633.849487304688	1506.164428710938	-462.5104675292969	-1534.808227539062	1488.185424804688	-168.3107757568359	-1615.720581054688	1041.619873046875	-445.5164794921875	-1568.517456054688	1033.5791015625	-149.8166046142578	-1556.4462890625	993.3675537109376	-432.1267395019531	-1480.3271484375	105.6851425170898	-323.9831848144531	-1519.163940429688	981.2278442382812	-178.0849609375	-1680.271484375	917.951904296875	-443.5924987792969	-1677.884643554688	956.9293823242188	-130.8110504150391	-1689.444946289062	1080.254028320312	-282.0018005371094	-1495.02392578125	694.8175048828125	-468.5015869140625	-1513.516479492188	309.558349609375	-419.8983459472656	-1576.839111328125	672.7224731445312	-456.7509765625	-1465.899291992188	599.5836181640625	-438.7890319824219	-2153.98876953125	213.1746978759766	-128.4319610595703	-1525.599365234375	406.6705322265625	-435.8568420410156	-1547.9453125	579.6490478515625	-427.5347900390625	-1650.43212890625	671.9176025390625	-135.4650421142578	-1259.878662109375	192.077392578125	-383.5857543945312	-1720.951538085938	704.1399536132812	-127.3503189086914	-1693.211303710938	580.3805541992188	-144.9315948486328	-1765.718872070312	617.0750732421875	-141.2368927001953	-1496.146240234375	545.0859985351562	-427.6011657714844	-1763.238647460938	573.8478393554688	-136.6717529296875	-1448.123046875	417.1533508300781	-432.7046203613281	-1434.759033203125	318.4240417480469	-420.1155395507812	-1843.552490234375	478.5934448242188	-125.5948333740234	-1307.176147460938	145.8820648193359	-436.5254211425781	-1886.814086914062	545.1018676757812	-123.6767120361328	-1454.759399414062	89.66092681884766	-299.3243103027344	-1928.860107421875	422.8865356445312	-128.0654449462891	-1969.987670898438	490.6515197753906	-131.8420867919922	-1438.136840820312	135.7605285644531	-388.5342102050781	-2109.062744140625	353.1893920898438	-152.3389587402344	-2121.2451171875	158.0050659179688	-184.2805023193359	-2122.40478515625	403.91552734375	-211.8365173339844	-2141.954345703125	385.1282653808594	-246.9034423828125	-2152.08984375	401.2499389648438	-191.283447265625	-1468.279174804688	74.86224365234375	-346.912109375
86	0.425	-1618.198974609375	1503.071411132812	-463.288818359375	-1518.58544921875	1485.7685546875	-169.2188720703125	-1599.465942382812	1038.868896484375	-445.8461608886719	-1552.57421875	1031.648071289062	-150.2989807128906	-1540.455688476562	990.91796875	-432.0542602539062	-1462.732788085938	102.9997940063477	-322.7974853515625	-1502.071411132812	979.5004272460938	-177.4844970703125	-1664.008178710938	915.2916870117188	-443.9123840332031	-1661.362670898438	953.5410766601562	-131.1423950195312	-1672.796020507812	1077.797485351562	-281.6304321289062	-1478.701904296875	691.4135131835938	-468.8621520996094	-1496.182495117188	307.5874938964844	-419.4235229492188	-1560.222290039062	668.5595092773438	-458.7309875488281	-1449.26220703125	597.1910400390625	-438.3489990234375	-2142.04443359375	219.0398254394531	-128.1925048828125	-1507.9169921875	404.4084167480469	-435.457763671875	-1531.264892578125	576.0687866210938	-428.2505493164062	-1632.1728515625	668.7271728515625	-135.6800079345703	-1243.159790039062	191.1577911376953	-382.4208374023438	-1702.34130859375	700.3524780273438	-127.0716400146484	-1673.066040039062	577.3834838867188	-144.3702392578125	-1746.9619140625	612.81005859375	-141.0920257568359	-1478.926635742188	542.6660766601562	-427.2077026367188	-1743.689819335938	569.4744873046875	-136.8161468505859	-1430.203125	414.766357421875	-431.234130859375	-1416.874633789062	316.1807250976562	-418.6402282714844	-1825.787719726562	476.0434265136719	-125.8642425537109	-1289.699829101562	144.4459838867188	-434.972900390625	-1867.26611328125	544.49755859375	-123.6592178344727	-1437.471069335938	87.30155181884766	-298.6838989257812	-1911.978393554688	422.24755859375	-128.6446380615234	-1951.261962890625	491.7080688476562	-132.3113555908203	-1419.3505859375	133.2812957763672	-386.7989196777344	-2093.788818359375	357.6903381347656	-152.2459564208984	-2110.270751953125	163.7922973632812	-183.2725982666016	-2106.0595703125	408.67236328125	-212.0269775390625	-2126.43408203125	390.7183532714844	-246.6254272460938	-2136.25244140625	407.0259094238281	-192.0079803466797	-1451.265625	73.40120697021484	-345.7451171875
